<svg xmlns="http://www.w3.org/2000/svg" width="280" height="200" viewBox="0 0 280 200">
  <g fill="none" stroke="#ffffff" stroke-width="1.5" stroke-linecap="round" stroke-linejoin="round" opacity="0.17">
    <!-- mountains -->
    <g transform="translate(12 14) rotate(-6)"><path d="M0 34 L14 10 L24 24 L34 6 L50 34 Z"/><path d="M12 16 l4 4 l4 -4"/></g>
    <!-- sun -->
    <g transform="translate(96 12) rotate(8)"><circle cx="16" cy="16" r="9"/><path d="M16 0v5M16 27v5M0 16h5M27 16h5M5 5l3 3M27 5l-3 3M5 27l3-3M27 27l-3-3"/></g>
    <!-- airplane -->
    <g transform="translate(168 10) rotate(-14)"><path d="M2 20 L40 14 L34 2 L28 13 L14 15 L8 6 L4 7 L7 16 L1 18 Z"/></g>
    <!-- compass -->
    <g transform="translate(232 14) rotate(10)"><circle cx="18" cy="18" r="16"/><path d="M18 6 l5 12 l-5 12 l-5 -12 z"/></g>
    <!-- palm tree -->
    <g transform="translate(16 82) rotate(6)"><path d="M20 40 C18 26 20 16 22 12"/><path d="M22 12 C14 8 6 10 2 16"/><path d="M22 12 C30 8 38 10 42 16"/><path d="M22 12 C18 4 12 2 6 2"/><path d="M22 12 C26 4 32 2 38 2"/></g>
    <!-- ocean waves -->
    <g transform="translate(84 88) rotate(-4)"><path d="M0 6 q10 -8 20 0 t20 0 t20 0"/><path d="M0 18 q10 -8 20 0 t20 0 t20 0"/></g>
    <!-- sailboat -->
    <g transform="translate(176 80) rotate(8)"><path d="M6 34 h34 l-6 8 h-22 z"/><path d="M22 4 v28"/><path d="M22 6 l14 22 h-14 z"/></g>
    <!-- hot-air balloon -->
    <g transform="translate(238 84) rotate(-8)"><path d="M18 4 C7 4 2 12 2 20 C2 28 12 34 18 40 C24 34 34 28 34 20 C34 12 29 4 18 4Z"/><path d="M13 33 l4 7 M23 33 l-4 7 M14 40 h8"/></g>
    <!-- suitcase -->
    <g transform="translate(20 150) rotate(-8)"><rect x="2" y="10" width="36" height="26" rx="4"/><path d="M14 10 V4 h12 v6 M2 20 h36"/></g>
    <!-- map pin -->
    <g transform="translate(94 148) rotate(10)"><path d="M18 2 C26 2 32 8 32 16 C32 28 18 42 18 42 C18 42 4 28 4 16 C4 8 10 2 18 2Z"/><circle cx="18" cy="16" r="6"/></g>
    <!-- camera -->
    <g transform="translate(158 152) rotate(-6)"><rect x="2" y="10" width="40" height="26" rx="5"/><path d="M14 10 l4 -6 h8 l4 6"/><circle cx="22" cy="23" r="8"/></g>
    <!-- wine glass -->
    <g transform="translate(226 150) rotate(7)"><path d="M8 4 h20 l-4 14 a6 6 0 0 1 -12 0 z"/><path d="M18 24 v12 M10 40 h16"/></g>
  </g>
</svg>
